Coordinates
nRows=266
nColumns=2
inDegrees=yes
endheader
time	ankle_angle_r	
3.19355	 -4.791260	
3.22681	 -4.782675	
3.26008	 -4.780390	
3.29335	 -4.767030	
3.32661	 -4.760742	
3.35988	 -4.765421	
3.39315	 -4.811294	
3.42641	 -4.786387	
3.45968	 -4.816808	
3.49294	 -4.816711	
3.52621	 -4.765676	
3.55948	 -4.765483	
3.59274	 -4.842392	
3.62601	 -4.877360	
3.65927	 -4.796809	
3.69254	 -4.806519	
3.72581	 -4.741710	
3.75907	 -4.850036	
3.79234	 -4.842972	
3.8256	 -4.733418	
3.85887	 -4.782130	
3.89214	 -4.800292	
3.9254	 -4.809132	
3.95867	 -4.791260	
3.99194	 -4.830520	
4.0252	 -4.876200	
4.05847	 -4.806519	
4.09173	 -4.799713	
4.125	 -4.823231	
4.15827	 -4.814778	
4.19153	 -4.906234	
4.2248	 -4.852295	
4.25806	 -4.882133	
4.29133	 -4.859681	
4.3246	 -4.867554	
4.35786	 -4.844616	
4.39113	 -4.821777	
4.4244	 -4.799033	
4.45766	 -4.913811	
4.49093	 -4.875520	
4.52419	 -4.791260	
4.55746	 -4.867554	
4.59073	 -4.891069	
4.62399	 -4.837036	
4.65726	 -4.830227	
4.69052	 -4.816899	
4.72379	 -4.817189	
4.75706	 -4.913330	
4.79032	 -4.824192	
4.82359	 -4.784934	
4.85685	 -4.852295	
4.89012	 -4.788122	
4.92339	 -4.833848	
4.95665	 -4.770062	
4.98992	 -4.779575	
5.02319	 -4.699707	
5.05645	 -4.825738	
5.08972	 -4.841191	
5.12298	 -4.749831	
5.15625	 -4.872095	
5.18952	 -4.837036	
5.22278	 -4.745483	
5.25605	 -4.852295	
5.28931	 -4.785945	
5.32258	 -4.816902	
5.35585	 -4.847516	
5.38911	 -4.806519	
5.42238	 -4.782089	
5.45565	 -4.811007	
5.48891	 -4.760742	
5.52218	 -4.802223	
5.55544	 -4.817579	
5.58871	 -4.776001	
5.62198	 -4.741478	
5.65524	 -4.810427	
5.68851	 -4.852295	
5.72177	 -4.745483	
5.75504	 -4.779619	
5.78831	 -4.818255	
5.82157	 -4.764167	
5.85484	 -4.791260	
5.8881	 -4.794491	
5.92137	 -4.730225	
5.95464	 -4.824816	
5.9879	 -4.791260	
6.02117	 -4.812208	
6.05444	 -4.821777	
6.0877	 -4.849643	
6.12097	 -4.814183	
6.15423	 -4.877896	
6.1875	 -4.765465	
6.22077	 -4.843831	
6.25403	 -4.793428	
6.2873	 -4.745483	
6.32056	 -4.869528	
6.35383	 -4.791260	
6.3871	 -4.810081	
6.42036	 -4.855664	
6.45363	 -4.911742	
6.4869	 -4.821777	
6.52016	 -4.834247	
6.55343	 -4.914628	
6.58669	 -4.941445	
6.61996	 -4.895862	
6.65323	 -4.913330	
6.68649	 -4.837036	
6.71976	 -4.853109	
6.75302	 -4.928589	
6.78629	 -4.838900	
6.81956	 -4.898071	
6.85282	 -4.898927	
6.88609	 -4.852295	
6.91935	 -4.868022	
6.95262	 -4.898071	
6.98589	 -4.776001	
7.01915	 -4.898127	
7.05242	 -4.882813	
7.08569	 -4.760991	
7.11895	 -4.837036	
7.15222	 -4.822662	
7.18548	 -4.821238	
7.21875	 -4.823685	
7.25202	 -4.837769	
7.28528	 -4.867554	
7.31855	 -4.866628	
7.35181	 -4.839081	
7.38508	 -4.790141	
7.41835	 -4.881597	
7.45161	 -4.821777	
7.48488	 -4.777410	
7.51815	 -4.779013	
7.55141	 -4.792862	
7.58468	 -4.867554	
7.61794	 -4.789464	
7.65121	 -4.777894	
7.68448	 -4.808508	
7.71774	 -4.876554	
7.75101	 -4.847929	
7.78427	 -4.778280	
7.81754	 -4.852295	
7.85081	 -4.824250	
7.88407	 -4.760742	
7.91734	 -4.803853	
7.9506	 -4.742721	
7.98387	 -4.848475	
8.01714	 -4.806519	
8.0504	 -4.757689	
8.08367	 -4.760742	
8.11694	 -4.867554	
8.1502	 -4.806519	
8.18347	 -4.774501	
8.21673	 -4.821777	
8.25	 -4.749116	
8.28327	 -4.779731	
8.31653	 -4.806519	
8.3498	 -4.772078	
8.38306	 -4.802499	
8.41633	 -4.810635	
8.4496	 -4.863340	
8.48286	 -4.826087	
8.51613	 -4.889258	
8.5494	 -4.745483	
8.58266	 -4.766801	
8.61593	 -4.847599	
8.64919	 -4.730225	
8.68246	 -4.735703	
8.71573	 -4.852295	
8.74899	 -4.760742	
8.78226	 -4.841935	
8.81552	 -4.831188	
8.84879	 -4.811030	
8.88206	 -4.841355	
8.91532	 -4.831470	
8.94859	 -4.821777	
8.98185	 -4.850273	
9.01512	 -4.764287	
9.04839	 -4.818426	
9.08165	 -4.785210	
9.11492	 -4.821777	
9.14819	 -4.819005	
9.18145	 -4.922249	
9.21472	 -4.889249	
9.24798	 -4.889346	
9.28125	 -4.891441	
9.31452	 -4.813246	
9.34778	 -4.867554	
9.38105	 -4.921669	
9.41431	 -4.875795	
9.44758	 -4.822809	
9.48085	 -4.821777	
9.51411	 -4.837036	
9.54738	 -4.783405	
9.58065	 -4.829535	
9.61391	 -4.798792	
9.64718	 -4.798825	
9.68044	 -4.768533	
9.71371	 -4.829149	
9.74698	 -4.838454	
9.78024	 -4.814599	
9.81351	 -4.844118	
9.84677	 -4.769016	
9.88004	 -4.842442	
9.91331	 -4.830245	
9.94657	 -4.865685	
9.97984	 -4.891473	
10.0131	 -4.828279	
10.0464	 -4.821777	
10.0796	 -4.763385	
10.1129	 -4.855131	
10.1462	 -4.788175	
10.1794	 -4.852295	
10.2127	 -4.800597	
10.246	 -4.714966	
10.2792	 -4.791260	
10.3125	 -4.796891	
10.3458	 -4.785725	
10.379	 -4.776001	
10.4123	 -4.780578	
10.4456	 -4.740239	
10.4788	 -4.811666	
10.5121	 -4.791260	
10.5454	 -4.806519	
10.5786	 -4.816920	
10.6119	 -4.776001	
10.6452	 -4.776001	
10.6784	 -4.821777	
10.7117	 -4.819932	
10.745	 -4.756368	
10.7782	 -4.867554	
10.8115	 -4.780182	
10.8448	 -4.768911	
10.878	 -4.871542	
10.9113	 -4.863663	
10.9446	 -4.825572	
10.9778	 -4.848129	
11.0111	 -4.818177	
11.0444	 -4.740737	
11.0776	 -4.813334	
11.1109	 -4.730225	
11.1442	 -4.772787	
11.1774	 -4.870671	
11.2107	 -4.760742	
11.244	 -4.754255	
11.2772	 -4.809346	
11.3105	 -4.760742	
11.3437	 -4.778635	
11.377	 -4.776001	
11.4103	 -4.824218	
11.4435	 -4.854639	
11.4768	 -4.778248	
11.5101	 -4.734526	
11.5433	 -4.898071	
11.5766	 -4.867554	
11.6099	 -4.850434	
11.6431	 -4.762506	
11.6764	 -4.714966	
11.7097	 -4.704418	
11.7429	 -4.699707	
11.7762	 -4.820400	
11.8095	 -4.760742	
11.8427	 -4.866370	
11.876	 -4.868641	
11.9093	 -4.745483	
11.9425	 -4.853189	
11.9758	 -4.898071	
12.0091	 -4.806519	
